<?xml version="1.0" standalone="no"?>
<!DOCTYPE svg PUBLIC "-//W3C//DTD SVG 20010904//EN"
 "http://www.w3.org/TR/2001/REC-SVG-20010904/DTD/svg10.dtd">
<svg version="1.0" xmlns="http://www.w3.org/2000/svg"
 width="425.000000pt" height="417.000000pt" viewBox="0 0 425.000000 417.000000"
 preserveAspectRatio="xMidYMid meet">

<g transform="translate(0.000000,417.000000) scale(0.100000,-0.100000)"
fill="#000000" stroke="none">
<path d="M2049 3891 l-94 -120 -95 -41 c-52 -23 -117 -52 -143 -63 l-48 -22
79 -135 79 -135 12 -154 c6 -85 14 -157 17 -160 2 -3 69 12 148 32 l143 37
147 -37 c80 -20 149 -34 152 -30 3 3 10 74 16 159 l10 153 79 134 c43 73 79
134 79 136 0 1 -64 31 -142 65 l-143 62 -94 119 c-52 65 -97 119 -101 119 -4
0 -49 -54 -101 -119z"/>
<path d="M400 3915 l0 -65 -65 0 -65 0 0 -65 0 -65 65 0 65 0 0 -65 0 -65 65
0 65 0 0 65 0 65 65 0 65 0 0 65 0 65 -65 0 -65 0 0 65 0 65 -65 0 -65 0 0
-65z m130 -130 l0 -65 -65 0 -65 0 0 65 0 65 65 0 65 0 0 -65z"/>
<path d="M3707 3973 c-4 -3 -7 -33 -7 -65 l0 -58 65 0 65 0 0 -65 0 -65 -60 0
c-41 0 -60 4 -61 13 -1 6 -2 35 -3 62 l-1 50 -62 3 -61 3 -4 -61 c-1 -34 -1
-64 1 -66 2 -2 30 -4 62 -4 l58 0 3 -62 3 -63 63 -3 62 -3 0 66 0 65 65 0 65
0 0 65 0 65 -65 0 -65 0 0 65 0 65 -58 0 c-32 0 -62 -3 -65 -7z"/>
<path d="M1114 3576 c-3 -7 -4 -35 -2 -62 l3 -49 63 -3 62 -3 0 66 0 65 -60 0
c-42 0 -62 -4 -66 -14z"/>
<path d="M3060 3525 l0 -66 63 3 62 3 0 60 0 60 -62 3 -63 3 0 -66z"/>
<path d="M1310 3265 l0 -65 65 0 65 0 0 65 0 65 -65 0 -65 0 0 -65z"/>
<path d="M2860 3265 l0 -65 65 0 65 0 0 65 0 65 -65 0 -65 0 0 -65z"/>
<path d="M598 3226 c-54 -69 -63 -76 -138 -106 -44 -18 -80 -35 -80 -39 0 -4
20 -42 44 -85 41 -71 45 -85 51 -172 5 -64 11 -94 19 -91 6 2 46 13 89 23 77
18 79 18 165 -3 48 -12 88 -20 90 -18 2 2 6 43 9 92 5 81 8 94 49 164 24 42
44 81 44 87 0 6 -35 25 -79 43 -72 29 -83 38 -137 105 -33 41 -61 74 -64 73
-3 0 -31 -33 -62 -73z"/>
<path d="M3576 3226 c-54 -67 -65 -76 -137 -106 -44 -18 -79 -36 -79 -41 0 -5
20 -44 44 -87 40 -71 44 -84 50 -166 3 -49 7 -90 8 -92 2 -1 42 7 90 19 86 21
88 21 165 3 43 -10 83 -21 90 -23 7 -3 13 25 18 90 7 88 11 101 51 172 24 43
44 81 44 85 0 4 -36 22 -79 40 -73 30 -85 39 -138 106 -32 40 -60 73 -63 74
-3 0 -31 -33 -64 -74z"/>
<path d="M1501 3071 l-45 -38 66 -99 c80 -119 129 -215 168 -333 54 -161 61
-210 67 -458 l5 -233 65 0 65 0 -4 228 c-4 187 -9 246 -27 332 -49 224 -134
411 -270 593 -19 26 -38 47 -41 47 -3 0 -25 -18 -49 -39z"/>
<path d="M2708 3063 c-145 -193 -246 -435 -283 -679 -9 -61 -15 -172 -15 -286
l0 -188 65 0 65 0 0 184 c0 102 5 219 11 261 27 196 120 431 233 588 31 43 56
81 56 85 0 7 -85 82 -92 82 -2 0 -20 -21 -40 -47z"/>
<path d="M2090 2945 l0 -65 63 0 62 0 -2 52 c-1 29 -2 59 -2 66 -1 8 -20 12
-61 12 l-60 0 0 -65z"/>
<path d="M1000 2795 c-47 -96 -86 -181 -88 -188 -2 -8 34 -41 81 -75 119 -86
231 -202 392 -405 77 -96 141 -174 142 -173 8 8 -61 491 -78 549 -45 153 -152
311 -279 412 -38 30 -73 55 -77 54 -4 0 -46 -79 -93 -174z"/>
<path d="M3133 2916 c-141 -111 -256 -288 -294 -456 -11 -47 -70 -502 -66
-507 2 -1 68 80 147 180 190 238 298 345 433 430 15 10 31 25 34 33 5 14 -165
372 -178 373 -4 1 -38 -23 -76 -53z"/>
<path d="M2088 2330 l-3 -421 63 3 c34 2 62 6 62 11 0 4 0 192 0 417 l0 410
-60 0 -60 0 -2 -420z"/>
<path d="M3770 2295 l0 -65 -65 0 -65 0 0 -65 0 -65 65 0 65 0 0 -65 0 -65 65
0 65 0 0 65 0 65 65 0 65 0 0 65 0 65 -65 0 -65 0 0 65 0 65 -65 0 -65 0 0
-65z m130 -130 l0 -65 -65 0 -65 0 0 65 0 65 65 0 65 0 0 -65z"/>
<path d="M400 2035 l0 -65 -65 0 -66 0 3 -62 3 -63 63 -3 62 -3 0 -64 0 -65
65 0 65 0 0 65 0 65 65 0 65 0 0 65 0 65 -65 0 -65 0 0 65 0 65 -65 0 -65 0 0
-65z m130 -130 l0 -65 -65 0 -65 0 0 65 0 65 65 0 65 0 0 -65z"/>
<path d="M861 1531 c-34 -66 -61 -125 -61 -130 0 -8 173 -11 558 -11 l558 0
62 120 c34 67 62 125 62 130 0 6 -210 10 -559 10 l-560 0 -60 -119z"/>
<path d="M2260 1643 c0 -5 28 -63 63 -130 l62 -123 563 0 562 0 -65 130 -65
130 -560 0 c-308 0 -560 -3 -560 -7z"/>
<path d="M2035 1340 l-39 -80 -473 0 -473 0 0 -520 0 -520 518 2 517 3 3 223
2 222 60 0 60 0 2 -223 3 -222 518 -3 517 -2 0 520 0 520 -473 0 -473 0 -39
80 c-21 44 -43 80 -47 80 -4 0 -8 -124 -8 -275 l0 -275 -60 0 -60 0 0 275 c0
151 -4 275 -8 275 -4 0 -26 -36 -47 -80z m-470 -665 l0 -60 -192 -3 -193 -2 0
65 0 65 193 -2 192 -3 0 -60z m3 -257 l-3 -63 -192 -3 -193 -2 0 65 0 65 195
0 196 0 -3 -62z m262 -3 l0 -65 -65 0 -65 0 0 65 0 65 65 0 65 0 0 -65z"/>
</g>
</svg>
