<?xml version="1.0" standalone="no"?>
<!DOCTYPE svg PUBLIC "-//W3C//DTD SVG 20010904//EN"
 "http://www.w3.org/TR/2001/REC-SVG-20010904/DTD/svg10.dtd">
<svg version="1.0" xmlns="http://www.w3.org/2000/svg"
 width="328.000000pt" height="382.000000pt" viewBox="0 0 328.000000 382.000000"
 preserveAspectRatio="xMidYMid meet">

<g transform="translate(0.000000,382.000000) scale(0.100000,-0.100000)"
fill="#000000" stroke="none">
<path d="M1484 3740 c-464 -49 -894 -354 -1102 -782 -52 -107 -96 -240 -119
-353 -16 -82 -18 -186 -20 -1193 -4 -1249 -10 -1157 75 -1194 83 -37 78 -40
360 220 74 68 137 122 141 120 8 -4 108 -111 245 -265 130 -146 169 -166 243
-125 17 9 97 96 179 192 81 96 151 175 154 175 4 0 47 -47 96 -105 48 -58 115
-136 147 -175 61 -72 106 -105 143 -105 57 0 86 25 255 213 95 106 176 193
180 195 5 2 68 -52 141 -120 225 -209 247 -227 281 -233 51 -10 110 18 136 65
l22 39 -4 1108 -3 1108 -26 115 c-63 282 -197 522 -403 718 -301 288 -705 426
-1121 382z m339 -131 c486 -73 884 -412 1031 -879 57 -179 56 -161 54 -1328
l-3 -1072 -150 137 c-211 193 -234 212 -270 219 -61 11 -93 -14 -275 -215 -95
-106 -176 -190 -180 -189 -4 2 -71 78 -149 170 -78 92 -153 176 -167 187 -19
15 -41 21 -75 21 -62 0 -76 -12 -249 -219 -74 -89 -137 -161 -141 -161 -3 0
-84 86 -179 191 -182 201 -214 226 -276 214 -33 -6 -74 -40 -319 -264 l-100
-91 -3 1072 c-2 1166 -3 1149 54 1328 95 302 302 561 578 723 127 74 289 131
446 156 80 13 289 13 373 0z"/>
<path d="M909 2577 c-107 -30 -192 -107 -230 -206 -29 -78 -23 -195 13 -266
33 -63 89 -119 153 -153 44 -24 62 -27 145 -27 84 0 101 3 145 27 66 35 128
100 159 168 51 110 28 259 -55 354 -77 87 -223 133 -330 103z m0 -203 c13 -9
29 -32 37 -50 27 -64 -24 -134 -96 -134 -66 0 -109 56 -96 124 13 66 98 99
155 60z m315 -156 c21 -30 20 -51 -4 -73 -40 -36 -100 -13 -100 39 0 52 75 76
104 34z"/>
<path d="M2229 2581 c-111 -23 -211 -107 -250 -210 -29 -78 -24 -194 13 -266
31 -60 96 -124 158 -156 38 -20 60 -24 140 -24 84 0 101 3 145 27 159 85 226
257 165 420 -54 145 -223 240 -371 209z m-16 -211 c52 -41 52 -119 -1 -160
-21 -18 -36 -21 -72 -17 -88 10 -120 108 -55 173 31 31 91 33 128 4z m313
-155 c20 -31 15 -53 -18 -78 l-28 -21 -27 21 c-34 25 -39 47 -19 78 11 17 26
25 46 25 20 0 35 -8 46 -25z"/>
<path d="M1519 1896 c-105 -40 -173 -97 -208 -176 -32 -71 -28 -106 18 -130
20 -10 27 -9 49 7 14 11 31 34 37 52 14 43 62 92 111 116 54 26 174 26 228 0
53 -25 105 -80 113 -116 7 -38 49 -72 77 -63 51 15 59 68 22 142 -33 63 -89
115 -161 149 -51 23 -75 28 -155 30 -61 2 -108 -2 -131 -11z"/>
</g>
</svg>
