<?xml version="1.0" standalone="no"?>
<!DOCTYPE svg PUBLIC "-//W3C//DTD SVG 20010904//EN"
 "http://www.w3.org/TR/2001/REC-SVG-20010904/DTD/svg10.dtd">
<svg version="1.0" xmlns="http://www.w3.org/2000/svg"
 width="407.000000pt" height="242.000000pt" viewBox="0 0 407.000000 242.000000"
 preserveAspectRatio="xMidYMid meet">

<g transform="translate(0.000000,242.000000) scale(0.100000,-0.100000)"
fill="#000000" stroke="none">
<path d="M3420 2359 c-36 -5 -164 -23 -285 -39 -339 -46 -1190 -160 -1280
-171 -101 -12 -113 -16 -154 -47 -54 -40 -74 -98 -66 -188 l7 -75 -33 6 c-19
3 -97 14 -174 25 -77 11 -311 44 -520 75 -209 30 -400 55 -425 55 -56 0 -101
-26 -122 -71 -14 -29 -52 -266 -103 -639 -8 -52 -34 -237 -59 -411 -25 -173
-46 -335 -46 -359 0 -59 30 -105 83 -124 23 -8 170 -33 327 -55 157 -22 440
-63 630 -91 438 -65 465 -67 507 -41 50 32 64 62 84 193 10 68 19 127 19 132
0 36 12 -25 35 -184 27 -185 37 -221 71 -251 60 -52 111 -58 277 -34 56 9 203
29 327 45 426 56 755 100 895 120 77 11 199 27 270 35 183 23 233 50 264 146
10 31 8 68 -13 220 -14 101 -44 321 -66 489 -155 1168 -148 1119 -173 1165
-43 78 -111 96 -277 74z m147 -151 c5 -7 20 -92 32 -188 13 -96 34 -256 48
-355 13 -99 35 -263 48 -365 13 -102 33 -252 44 -335 12 -82 32 -231 45 -330
19 -140 22 -183 13 -192 -14 -15 21 -9 -1022 -148 -148 -20 -367 -49 -485 -65
-254 -35 -267 -36 -274 -12 -2 9 -21 139 -41 287 -19 149 -49 367 -65 485 -16
118 -34 256 -40 305 -6 50 -20 151 -30 225 -11 74 -26 191 -35 260 -8 69 -17
139 -20 155 -2 17 -1 36 3 42 4 7 41 17 82 23 84 12 803 108 1095 146 105 14
264 35 355 48 197 28 234 30 247 14z m-2882 -348 c382 -53 969 -140 973 -145
5 -5 14 -68 71 -500 l29 -219 -49 -341 c-27 -187 -49 -341 -49 -342 0 -8 -88
1 -270 27 -113 17 -268 39 -345 50 -483 68 -760 111 -767 118 -5 5 4 97 21
208 17 109 42 280 56 379 83 584 108 752 116 773 7 19 14 22 41 17 18 -3 96
-14 173 -25z"/>
<path d="M2672 1850 c-73 -11 -188 -69 -245 -124 -87 -84 -127 -214 -90 -286
22 -42 54 -60 110 -60 55 0 108 44 124 103 21 78 47 117 92 138 94 42 188 13
216 -68 13 -36 13 -45 -3 -86 -9 -25 -29 -58 -44 -74 -165 -176 -187 -212
-180 -300 8 -91 71 -137 157 -113 47 12 65 35 87 110 13 45 32 70 116 157 116
121 151 184 152 272 2 233 -205 373 -492 331z"/>
<path d="M2749 870 c-51 -27 -83 -94 -74 -152 10 -59 65 -113 123 -123 57 -9
128 25 154 75 69 132 -71 270 -203 200z"/>
<path d="M1002 1590 c-59 -12 -140 -58 -168 -95 -73 -97 -63 -185 23 -201 45
-8 83 9 112 52 13 19 37 46 53 59 56 47 156 25 184 -40 25 -60 -1 -104 -95
-163 -42 -26 -93 -62 -113 -81 -89 -79 -63 -201 43 -201 41 0 55 11 89 65 14
22 45 48 88 72 114 62 158 99 186 155 73 145 -13 311 -187 363 -66 19 -162 26
-215 15z"/>
<path d="M940 833 c-40 -28 -49 -45 -50 -96 0 -40 5 -53 29 -77 48 -48 101
-51 154 -10 81 64 31 200 -75 200 -18 0 -45 -8 -58 -17z"/>
</g>
</svg>
